# xmcd CD database file
#
# Track frame offsets:
#	150
#	19752
#	31300
#	42417
#	59429
#
# Disc length: 1023 seconds
#
# Revision: 0
# Processed by: cddbd v1.5.2PL0 Copyright (c) Steve Scherf et al.
# Submitted via: CDex 1.51
#
DISCID=3b03fd05
DTITLE=Shooter Jennings - Don't Wait Up (for George)
DYEAR=2014
DGENRE=Country
TTITLE0=Don't Wait Up (I'm Playin' Possum)
TTITLE1=Living In A Minor Key
TTITLE2=She Thinks I Still Care
TTITLE3=If Drinkin' Don't Kill Me
TTITLE4=Shooter Jennings - The Door
EXTD=YEAR: 2014
EXTT0=
EXTT1=
EXTT2=
EXTT3=
EXTT4=
PLAYORDER=
